<svg version="1.1" id="Layer_1" xmlns="http://www.w3.org/2000/svg" xmlns:xlink="http://www.w3.org/1999/xlink" x="0px" y="0px"
	 width="10px" height="10px" viewBox="0 0 10 10" enable-background="new 0 0 10 10" xml:space="preserve">
<path d="M10,5V0.2C10,0.1,9.9,0,9.8,0H0.2C0.1,0,0,0.1,0,0.2v9.6C0,9.9,0.1,10,0.2,10h9.6C9.9,10,10,9.9,10,9.8V5L10,5L10,5z
	 M7.3,2.8v2h-2v-2H7.3z M9.7,2.8v2h-2v-2H9.7z M4.9,4.8h-2v-2h2V4.8L4.9,4.8z M2.8,5.1h2v2.102h-2V5.1z M2.8,7.6h2v2h-2V7.6z
	 M5.2,7.6h2v2h-2V7.6z M5.2,7.2V5.1h2v2.102L5.2,7.2L5.2,7.2z M7.6,5.1h2v2.102h-2V5.1z M9.7,2.4H2.9v-2h6.8V2.4z M2.4,0.4v2h-2v-2
	H2.4z M0.4,2.8h2v6.9h-2V2.8z M7.6,9.6v-2h2v2H7.6L7.6,9.6z"/>
</svg>
