<svg version="1.1" id="Layer_1" xmlns="http://www.w3.org/2000/svg" xmlns:xlink="http://www.w3.org/1999/xlink" x="0px" y="0px"
	 viewBox="-463 265 32 32" enable-background="new -463 265 32 32" xml:space="preserve">
<g id="grid">
	<g>
		<path d="M-431.2,280.3v-14.7c0-0.3-0.2-0.6-0.6-0.6h-29.7c-0.3,0-0.6,0.2-0.6,0.6v29.7c0,0.3,0.2,0.6,0.6,0.6h29.7
			c0.3,0,0.6-0.2,0.6-0.6V280.3C-431.2,280.3-431.1,280.3-431.2,280.3L-431.2,280.3z M-439.7,273.5v6.2h-6.3v-6.2H-439.7z
			 M-432.3,273.5v6.2h-6.3v-6.2H-432.3z M-447.1,279.7h-6.3v-6.2h6.3L-447.1,279.7L-447.1,279.7z M-453.5,280.8h6.3v6.5h-6.3V280.8z
			 M-453.5,288.4h6.3v6.3h-6.3V288.4z M-446,288.4h6.3v6.3h-6.3C-446,294.7-446,288.4-446,288.4z M-446,287.3v-6.5h6.3v6.5H-446z
			 M-438.6,280.8h6.3v6.5h-6.3V280.8z M-432.3,272.4h-21.2v-6.3h21.2V272.4z M-454.6,266.1v6.3h-6.3v-6.3H-454.6z M-460.9,273.5h6.3
			v21.2h-6.3V273.5z M-438.6,294.7v-6.3h6.3v6.3H-438.6z"/>
	</g>
</g>
</svg>
