<?xml version="1.0" encoding="utf-8"?>
<!-- Generator: Adobe Illustrator 16.0.4, SVG Export Plug-In . SVG Version: 6.00 Build 0)  -->
<!DOCTYPE svg PUBLIC "-//W3C//DTD SVG 1.1//EN" "http://www.w3.org/Graphics/SVG/1.1/DTD/svg11.dtd">
<svg version="1.1" id="Layer_1" xmlns="http://www.w3.org/2000/svg" xmlns:xlink="http://www.w3.org/1999/xlink" x="0px" y="0px"
	 width="498.14px" height="498.139px" viewBox="71.163 102.454 498.14 498.139"
	 enable-background="new 71.163 102.454 498.14 498.139" xml:space="preserve">
<path d="M320.232,138.035c117.419,0,213.488,96.07,213.488,213.489c0,117.418-96.069,213.488-213.488,213.488
	c-117.418,0-213.488-96.07-213.488-213.488C106.744,234.104,202.814,138.035,320.232,138.035 M320.232,102.454
	c-138.767,0-249.07,110.302-249.07,249.07s110.303,249.069,249.07,249.069c138.768,0,249.07-110.302,249.07-249.069
	S459,102.454,320.232,102.454L320.232,102.454z M241.954,426.244l153-71.163l-153-74.721v-35.581l185.023,96.069v24.907
	l-185.023,96.069V426.244z"/>
</svg>
