<?xml version="1.0" encoding="utf-8"?>
<!-- Generator: Adobe Illustrator 16.0.4, SVG Export Plug-In . SVG Version: 6.00 Build 0)  -->
<!DOCTYPE svg PUBLIC "-//W3C//DTD SVG 1.1//EN" "http://www.w3.org/Graphics/SVG/1.1/DTD/svg11.dtd">
<svg version="1.1" id="Layer_1" xmlns="http://www.w3.org/2000/svg" xmlns:xlink="http://www.w3.org/1999/xlink" x="0px" y="0px"
	 width="498.14px" height="498.139px" viewBox="71.163 102.454 498.14 498.139"
	 enable-background="new 71.163 102.454 498.14 498.139" xml:space="preserve">
<path d="M533.721,351.523c0,117.419-96.069,213.489-213.488,213.489c-117.418,0-213.488-96.07-213.488-213.489
	s96.07-213.488,213.488-213.488C437.651,138.035,533.721,234.104,533.721,351.523 M569.303,351.523
	c0-138.767-110.303-249.07-249.07-249.07S71.163,212.756,71.163,351.523c0,138.768,110.302,249.071,249.069,249.071
	S569.303,490.291,569.303,351.523L569.303,351.523z M245.512,273.244l71.162,153l74.722-153h35.581l-96.069,185.023H306
	l-96.069-185.023H245.512z"/>
</svg>
