<svg height="32px" id="Layer_1" style="enable-background:new 0 0 32 32;" version="1.1" viewBox="0 0 32 32" width="32px" xml:space="preserve" xmlns="http://www.w3.org/2000/svg" xmlns:xlink="http://www.w3.org/1999/xlink"><g transform="translate(624 0)"><path d="M-604,26c0,0.553-0.447,1-1,1h-6c-0.553,0-1-0.447-1-1s0.447-1,1-1h6C-604.447,25-604,25.447-604,26z M-605,28h-6   c-0.553,0-1,0.447-1,1s0.447,1,1,1c0,1.104,0.896,2,2,2h2c1.105,0,2-0.896,2-2c0.553,0,1-0.447,1-1S-604.447,28-605,28z M-608,2   c4.412,0,8,3.59,8,8c0,2.852-1.498,5.426-4.006,6.885L-605,17.463V22h-6v-4.535l-0.994-0.58C-614.504,15.424-616,12.85-616,10   C-616,5.59-612.41,2-608,2z M-608,0c-5.522,0-10,4.477-10,10c0,3.69,2.023,6.879,5,8.613V22c0,1.104,0.896,2,2,2h6   c1.104,0,2-0.896,2-2v-3.387c2.979-1.732,5-4.923,5-8.613C-598,4.477-602.477,0-608,0L-608,0z"/></g></svg>