<svg version="1.1" id="Layer_1" xmlns="http://www.w3.org/2000/svg" xmlns:xlink="http://www.w3.org/1999/xlink" x="0px" y="0px"
	 width="32px" height="32px" viewBox="0 0 32 32" enable-background="new 0 0 32 32" xml:space="preserve">
<path d="M20,26c0,0.553-0.447,1-1,1h-6c-0.553,0-1-0.447-1-1s0.447-1,1-1h6C19.553,25,20,25.447,20,26z M19,28h-6
	c-0.553,0-1,0.447-1,1s0.447,1,1,1c0,1.104,0.896,2,2,2h2c1.105,0,2-0.896,2-2c0.553,0,1-0.447,1-1S19.553,28,19,28z M16,2
	c4.412,0,8,3.59,8,8c0,2.852-1.498,5.426-4.006,6.885L19,17.463V22h-6v-4.535l-0.994-0.58C9.496,15.424,8,12.85,8,10
	C8,5.59,11.59,2,16,2z M16,0C10.478,0,6,4.477,6,10c0,3.69,2.023,6.879,5,8.613V22c0,1.104,0.896,2,2,2h6c1.104,0,2-0.896,2-2
	v-3.387c2.979-1.732,5-4.923,5-8.613C26,4.477,21.523,0,16,0L16,0z"/>
</svg>
