<svg version="1.1" id="Layer_1" xmlns="http://www.w3.org/2000/svg" xmlns:xlink="http://www.w3.org/1999/xlink" x="0px" y="0px"
	 viewBox="0 0 42.2 35.9" enable-background="new 0 0 42.2 35.9" xml:space="preserve">
<path fill="#231F20" d="M0.2,34.8c-0.3-0.7-0.2-1.3,0.2-2l19.3-32C20,0.2,20.5-0.1,21.1,0c0.6,0.1,1,0.4,1.4,1.1l19.3,31.7
	c0.4,0.6,0.5,1.3,0.2,2c-0.3,0.7-0.8,1.1-1.5,1.1H1.7C0.9,35.9,0.4,35.5,0.2,34.8z M34.4,29.9L21.1,8.2L7.7,29.9h10.4v-3h6v3H34.4z
	 M24.1,17.9l-3,9l-3-9v-3h6V17.9z"/>
</svg>
